<svg width="31" height="31" viewBox="0 0 31 31" fill="none" xmlns="http://www.w3.org/2000/svg">
<path d="M6.48295 27.5069C7.63157 26.3987 15.45 16.1286 15.122 15.7886C14.7939 15.4485 4.25065 22.8946 3.10203 24.0028C1.95341 25.111 0.756201 27.7796 1.69041 28.7479C2.62461 29.7161 5.33434 28.6151 6.48295 27.5069Z" fill="#A47B67"/>
<path d="M14.9388 23.1127C14.9388 17.6127 20.4388 17.6127 20.4388 17.6127C25.1333 17.6127 30 23.7011 30 29.5001" stroke="#A47B67" stroke-width="2"/>
<path d="M14.9389 23.1127C14.9389 25.0457 15.9388 27.1961 18.4388 27.6127C21.4388 28.1127 22.4388 26.3558 22.4388 25.1127C22.4388 23.8697 21.4388 22.6128 21.4388 22.6128" stroke="#A47B67" stroke-width="2"/>
<ellipse cx="21.1802" cy="23.2024" rx="2.145" ry="2.13135" transform="rotate(-179.425 21.1802 23.2024)" fill="#A47B67"/>
<path d="M7.37458 16.23C13.0435 16.2852 13.0976 10.7254 13.0976 10.7254C13.1438 5.97999 7.97711 1.05818 2 1" stroke="#A47B67" stroke-width="2"/>
<path d="M7.37446 16.2299C5.38209 16.2105 3.17557 15.1781 2.7707 12.6468C2.28485 9.60916 4.10555 8.6159 5.38683 8.62837C6.6681 8.64085 7.95376 9.66432 7.95376 9.66432" stroke="#A47B67" stroke-width="2"/>
<ellipse cx="2.195" cy="2.19691" rx="2.195" ry="2.19691" transform="matrix(0.000506961 1 1 -0.000116383 5.14551 7.75171)" fill="#A47B67"/>
</svg>
