<svg width="31" height="31" viewBox="0 0 31 31" fill="none" xmlns="http://www.w3.org/2000/svg">
<path d="M2.99303 6.48295C4.10126 7.63157 14.3713 15.45 14.7114 15.122C15.0514 14.7939 7.60539 4.25065 6.49715 3.10203C5.38892 1.95341 2.7203 0.756201 1.75206 1.69041C0.783807 2.62461 1.88479 5.33434 2.99303 6.48295Z" fill="#A47B67"/>
<path d="M7.38721 14.9388C12.8872 14.9388 12.8872 20.4388 12.8872 20.4388C12.8872 25.1333 5.79899 30 0 30" stroke="#A47B67" stroke-width="2"/>
<path d="M7.38719 14.9389C5.45419 14.9389 3.30388 15.9388 2.88721 18.4388C2.3872 21.4388 4.1441 22.4388 5.38719 22.4388C6.63028 22.4388 7.88717 21.4388 7.88717 21.4388" stroke="#A47B67" stroke-width="2"/>
<ellipse cx="7.2975" cy="21.1802" rx="2.145" ry="2.13135" transform="rotate(-89.4246 7.2975 21.1802)" fill="#A47B67"/>
<path d="M14.2699 7.37458C14.2147 13.0435 19.7745 13.0976 19.7745 13.0976C24.5199 13.1438 29.4418 7.91595 29.4999 1.93884" stroke="#A47B67" stroke-width="2"/>
<path d="M14.27 7.37446C14.2894 5.38209 15.3218 3.17557 17.8531 2.7707C20.8907 2.28485 21.884 4.10555 21.8715 5.38683C21.8591 6.6681 20.8356 7.95376 20.8356 7.95376" stroke="#A47B67" stroke-width="2"/>
<ellipse cx="2.195" cy="2.19691" rx="2.195" ry="2.19691" transform="matrix(-1 0.000506961 0.000116383 1 22.7483 5.14551)" fill="#A47B67"/>
</svg>
