<svg width="31" height="31" viewBox="0 0 31 31" fill="none" xmlns="http://www.w3.org/2000/svg">
<path d="M24.4558 2.99303C23.3071 4.10126 15.4887 14.3713 15.8168 14.7114C16.1448 15.0514 26.6881 7.60539 27.8367 6.49715C28.9853 5.38892 30.1825 2.7203 29.2483 1.75206C28.3141 0.783807 25.6044 1.88479 24.4558 2.99303Z" fill="#A47B67"/>
<path d="M16 7.38721C16 12.8872 10.5 12.8872 10.5 12.8872C5.80558 12.8872 1 7.79899 1 2" stroke="#A47B67" stroke-width="2"/>
<path d="M16 7.38719C16 5.45419 15 3.30388 12.5 2.88721C9.50002 2.3872 8.5 4.1441 8.5 5.38719C8.5 6.63028 9.5 7.88717 9.5 7.88717" stroke="#A47B67" stroke-width="2"/>
<ellipse cx="9.7435" cy="7.29741" rx="2.13" ry="2.13135" transform="rotate(0.575437 9.7435 7.29741)" fill="#A47B67"/>
<path d="M23.5643 14.27C17.8953 14.2148 17.8412 19.7746 17.8412 19.7746C17.795 24.52 23.0229 29.4418 29 29.5" stroke="#A47B67" stroke-width="2"/>
<path d="M23.5644 14.2701C25.5568 14.2895 27.7633 15.3219 28.1681 17.8532C28.654 20.8908 26.8333 21.8841 25.552 21.8716C24.2707 21.8592 22.9851 20.8357 22.9851 20.8357" stroke="#A47B67" stroke-width="2"/>
<ellipse cx="2.195" cy="2.19691" rx="2.195" ry="2.19691" transform="matrix(-0.000506961 -1 -1 0.000116383 25.7933 22.7483)" fill="#A47B67"/>
</svg>
