<svg width="31" height="31" viewBox="0 0 31 31" fill="none" xmlns="http://www.w3.org/2000/svg">
<path d="M27.5069 24.4558C26.3987 23.3072 16.1286 15.4887 15.7886 15.8168C15.4485 16.1449 22.8946 26.6881 24.0028 27.8368C25.111 28.9854 27.7796 30.1826 28.7479 29.2484C29.7161 28.3142 28.6151 25.6044 27.5069 24.4558Z" fill="#CEAE5A"/>
<path d="M23.1127 16C17.6127 16 17.6127 10.5 17.6127 10.5C17.6127 5.80558 23.201 1 29 1" stroke="#CEAE5A" stroke-width="2"/>
<path d="M23.1127 16C25.0457 16 27.1961 15 27.6127 12.5C28.1127 9.50002 26.3558 8.5 25.1127 8.5C23.8697 8.5 22.6128 9.5 22.6128 9.5" stroke="#CEAE5A" stroke-width="2"/>
<ellipse cx="23.154" cy="10.1513" rx="2.13" ry="2.13135" transform="rotate(90.5754 23.154 10.1513)" fill="#CEAE5A"/>
<path d="M16.23 23.5643C16.2852 17.8953 10.7254 17.8412 10.7254 17.8412C5.97999 17.795 1.05818 23.0229 1 29" stroke="#CEAE5A" stroke-width="2"/>
<path d="M16.23 23.5643C16.2106 25.5567 15.1781 27.7632 12.6468 28.1681C9.60919 28.6539 8.61593 26.8332 8.6284 25.552C8.64088 24.2707 9.66435 22.985 9.66435 22.985" stroke="#CEAE5A" stroke-width="2"/>
<ellipse cx="2.195" cy="2.19691" rx="2.195" ry="2.19691" transform="matrix(1 -0.000506961 -0.000116383 -1 7.75168 25.7933)" fill="#CEAE5A"/>
</svg>
