<svg width="31" height="31" viewBox="0 0 31 31" fill="none" xmlns="http://www.w3.org/2000/svg">
<path d="M6.48295 27.5069C7.63157 26.3986 15.45 16.1286 15.122 15.7885C14.7939 15.4485 4.25065 22.8945 3.10203 24.0027C1.95341 25.111 0.756201 27.7796 1.69041 28.7478C2.62461 29.7161 5.33434 28.6151 6.48295 27.5069Z" fill="#CEAE5A"/>
<path d="M14.9388 23.1127C14.9388 17.6127 20.4388 17.6127 20.4388 17.6127C25.1333 17.6127 30 23.701 30 29.5" stroke="#CEAE5A" stroke-width="2"/>
<path d="M14.9389 23.1127C14.9389 25.0457 15.9388 27.196 18.4388 27.6127C21.4388 28.1127 22.4388 26.3558 22.4388 25.1127C22.4388 23.8696 21.4388 22.6127 21.4388 22.6127" stroke="#CEAE5A" stroke-width="2"/>
<ellipse cx="21.1802" cy="23.2024" rx="2.145" ry="2.13135" transform="rotate(-179.425 21.1802 23.2024)" fill="#CEAE5A"/>
<path d="M7.37458 16.23C13.0435 16.2851 13.0976 10.7254 13.0976 10.7254C13.1438 5.97993 7.97711 1.05812 2 0.999939" stroke="#CEAE5A" stroke-width="2"/>
<path d="M7.37446 16.2299C5.38209 16.2105 3.17557 15.178 2.7707 12.6467C2.28485 9.6091 4.10555 8.61584 5.38683 8.62831C6.6681 8.64079 7.95376 9.66426 7.95376 9.66426" stroke="#CEAE5A" stroke-width="2"/>
<ellipse cx="2.195" cy="2.19691" rx="2.195" ry="2.19691" transform="matrix(0.000506961 1 1 -0.000116383 5.14551 7.75165)" fill="#CEAE5A"/>
</svg>
