<svg width="30" height="32" viewBox="0 0 30 32" fill="none" xmlns="http://www.w3.org/2000/svg">
<path d="M2.99303 7.48295C4.10126 8.63157 14.3713 16.45 14.7114 16.122C15.0514 15.7939 7.60539 5.25065 6.49715 4.10203C5.38892 2.95341 2.7203 1.7562 1.75206 2.69041C0.783807 3.62461 1.88479 6.33434 2.99303 7.48295Z" fill="#CEAE5A"/>
<path d="M7.38721 15.9388C12.8872 15.9388 12.8872 21.4388 12.8872 21.4388C12.8872 26.1333 7.79899 30.9388 2 30.9388" stroke="#CEAE5A" stroke-width="2"/>
<path d="M7.38719 15.9389C5.45419 15.9389 3.30388 16.9388 2.88721 19.4388C2.3872 22.4388 4.1441 23.4388 5.38719 23.4388C6.63028 23.4388 7.88717 22.4388 7.88717 22.4388" stroke="#CEAE5A" stroke-width="2"/>
<ellipse cx="7.29756" cy="22.1802" rx="2.145" ry="2.13135" transform="rotate(-89.4246 7.29756 22.1802)" fill="#CEAE5A"/>
<path d="M14.27 8.37458C14.2148 14.0435 19.7746 14.0976 19.7746 14.0976C24.52 14.1438 28.9418 6.97711 29 1" stroke="#CEAE5A" stroke-width="2"/>
<path d="M14.2701 8.37446C14.2895 6.38209 15.3219 4.17557 17.8532 3.7707C20.8908 3.28485 21.8841 5.10555 21.8716 6.38683C21.8592 7.6681 20.8357 8.95376 20.8357 8.95376" stroke="#CEAE5A" stroke-width="2"/>
<ellipse cx="2.195" cy="2.19691" rx="2.195" ry="2.19691" transform="matrix(-1 0.000506961 0.000116383 1 22.7483 6.14551)" fill="#CEAE5A"/>
</svg>
